<svg width="168" height="98" viewBox="0 0 168 98" fill="none" xmlns="http://www.w3.org/2000/svg">
<g clip-path="url(#clip0_1_2)" filter="url(#filter0_d_1_2)">
<g filter="url(#filter1_i_1_2)">
<rect x="4" width="160" height="90" rx="17" fill="#ED5393"/>
</g>
<rect x="5.5" y="1.5" width="157" height="87" rx="15.5" stroke="#D6246E" stroke-width="3"/>
<g filter="url(#filter2_d_1_2)">
<path d="M44.9297 38H40.3125L32.8594 25.0391H32.7539C32.7852 25.5781 32.8125 26.1211 32.8359 26.668C32.8594 27.2148 32.8828 27.7617 32.9062 28.3086C32.9297 28.8477 32.9531 29.3906 32.9766 29.9375V38H29.7305V20.8672H34.3125L41.7539 33.6992H41.8359C41.8203 33.168 41.8008 32.6406 41.7773 32.1172C41.7539 31.5938 41.7305 31.0703 41.707 30.5469C41.6914 30.0234 41.6758 29.5 41.6602 28.9766V20.8672H44.9297V38ZM54.375 24.6523C55.5859 24.6523 56.6289 24.8867 57.5039 25.3555C58.3789 25.8164 59.0547 26.4883 59.5312 27.3711C60.0078 28.2539 60.2461 29.332 60.2461 30.6055V32.3398H51.7969C51.8359 33.3477 52.1367 34.1406 52.6992 34.7188C53.2695 35.2891 54.0586 35.5742 55.0664 35.5742C55.9023 35.5742 56.668 35.4883 57.3633 35.3164C58.0586 35.1445 58.7734 34.8867 59.5078 34.543V37.3086C58.8594 37.6289 58.1797 37.8633 57.4688 38.0117C56.7656 38.1602 55.9102 38.2344 54.9023 38.2344C53.5898 38.2344 52.4258 37.9922 51.4102 37.5078C50.4023 37.0234 49.6094 36.2852 49.0312 35.293C48.4609 34.3008 48.1758 33.0508 48.1758 31.543C48.1758 30.0117 48.4336 28.7383 48.9492 27.7227C49.4727 26.6992 50.1992 25.9336 51.1289 25.4258C52.0586 24.9102 53.1406 24.6523 54.375 24.6523ZM54.3984 27.1953C53.7031 27.1953 53.125 27.418 52.6641 27.8633C52.2109 28.3086 51.9492 29.0078 51.8789 29.9609H56.8945C56.8867 29.4297 56.7891 28.957 56.6016 28.543C56.4219 28.1289 56.1484 27.8008 55.7812 27.5586C55.4219 27.3164 54.9609 27.1953 54.3984 27.1953ZM75.1758 24.8984V38H72.4336L71.9531 36.3242H71.7656C71.4844 36.7695 71.1328 37.1328 70.7109 37.4141C70.2891 37.6953 69.8242 37.9023 69.3164 38.0352C68.8086 38.168 68.2812 38.2344 67.7344 38.2344C66.7969 38.2344 65.9805 38.0703 65.2852 37.7422C64.5898 37.4062 64.0469 36.8867 63.6562 36.1836C63.2734 35.4805 63.082 34.5664 63.082 33.4414V24.8984H66.6562V32.5508C66.6562 33.4883 66.8242 34.1953 67.1602 34.6719C67.4961 35.1484 68.0312 35.3867 68.7656 35.3867C69.4922 35.3867 70.0625 35.2227 70.4766 34.8945C70.8906 34.5586 71.1797 34.0703 71.3438 33.4297C71.5156 32.7812 71.6016 31.9922 71.6016 31.0625V24.8984H75.1758ZM86.2383 24.6523C86.418 24.6523 86.625 24.6641 86.8594 24.6875C87.1016 24.7031 87.2969 24.7266 87.4453 24.7578L87.1758 28.1094C87.0586 28.0703 86.8906 28.043 86.6719 28.0273C86.4609 28.0039 86.2773 27.9922 86.1211 27.9922C85.6602 27.9922 85.2109 28.0508 84.7734 28.168C84.3438 28.2852 83.957 28.4766 83.6133 28.7422C83.2695 29 82.9961 29.3438 82.793 29.7734C82.5977 30.1953 82.5 30.7148 82.5 31.332V38H78.9258V24.8984H81.6328L82.1602 27.1016H82.3359C82.5938 26.6562 82.9141 26.25 83.2969 25.8828C83.6875 25.5078 84.1289 25.2109 84.6211 24.9922C85.1211 24.7656 85.6602 24.6523 86.2383 24.6523ZM101.73 31.4258C101.73 32.5195 101.582 33.4883 101.285 34.332C100.996 35.1758 100.57 35.8906 100.008 36.4766C99.4531 37.0547 98.7812 37.4922 97.9922 37.7891C97.2109 38.0859 96.3281 38.2344 95.3438 38.2344C94.4219 38.2344 93.5742 38.0859 92.8008 37.7891C92.0352 37.4922 91.3672 37.0547 90.7969 36.4766C90.2344 35.8906 89.7969 35.1758 89.4844 34.332C89.1797 33.4883 89.0273 32.5195 89.0273 31.4258C89.0273 29.9727 89.2852 28.7422 89.8008 27.7344C90.3164 26.7266 91.0508 25.9609 92.0039 25.4375C92.957 24.9141 94.0938 24.6523 95.4141 24.6523C96.6406 24.6523 97.7266 24.9141 98.6719 25.4375C99.625 25.9609 100.371 26.7266 100.91 27.7344C101.457 28.7422 101.73 29.9727 101.73 31.4258ZM92.6719 31.4258C92.6719 32.2852 92.7656 33.0078 92.9531 33.5938C93.1406 34.1797 93.4336 34.6211 93.832 34.918C94.2305 35.2148 94.75 35.3633 95.3906 35.3633C96.0234 35.3633 96.5352 35.2148 96.9258 34.918C97.3242 34.6211 97.6133 34.1797 97.793 33.5938C97.9805 33.0078 98.0742 32.2852 98.0742 31.4258C98.0742 30.5586 97.9805 29.8398 97.793 29.2695C97.6133 28.6914 97.3242 28.2578 96.9258 27.9688C96.5273 27.6797 96.0078 27.5352 95.3672 27.5352C94.4219 27.5352 93.7344 27.8594 93.3047 28.5078C92.8828 29.1562 92.6719 30.1289 92.6719 31.4258ZM112.125 24.6523C113.523 24.6523 114.648 25.0352 115.5 25.8008C116.352 26.5586 116.777 27.7773 116.777 29.457V38H113.203V30.3477C113.203 29.4102 113.031 28.7031 112.688 28.2266C112.352 27.75 111.82 27.5117 111.094 27.5117C110 27.5117 109.254 27.8828 108.855 28.625C108.457 29.3672 108.258 30.4375 108.258 31.8359V38H104.684V24.8984H107.414L107.895 26.5742H108.094C108.375 26.1211 108.723 25.7539 109.137 25.4727C109.559 25.1914 110.023 24.9844 110.531 24.8516C111.047 24.7188 111.578 24.6523 112.125 24.6523ZM125.824 24.6289C127.582 24.6289 128.93 25.0117 129.867 25.7773C130.805 26.543 131.273 27.707 131.273 29.2695V38H128.777L128.086 36.2188H127.992C127.617 36.6875 127.234 37.0703 126.844 37.3672C126.453 37.6641 126.004 37.8828 125.496 38.0234C124.988 38.1641 124.371 38.2344 123.645 38.2344C122.871 38.2344 122.176 38.0859 121.559 37.7891C120.949 37.4922 120.469 37.0391 120.117 36.4297C119.766 35.8125 119.59 35.0312 119.59 34.0859C119.59 32.6953 120.078 31.6719 121.055 31.0156C122.031 30.3516 123.496 29.9844 125.449 29.9141L127.723 29.8438V29.2695C127.723 28.582 127.543 28.0781 127.184 27.7578C126.824 27.4375 126.324 27.2773 125.684 27.2773C125.051 27.2773 124.43 27.3672 123.82 27.5469C123.211 27.7266 122.602 27.9531 121.992 28.2266L120.809 25.8125C121.504 25.4453 122.281 25.1562 123.141 24.9453C124.008 24.7344 124.902 24.6289 125.824 24.6289ZM127.723 31.9297L126.34 31.9766C125.184 32.0078 124.379 32.2148 123.926 32.5977C123.48 32.9805 123.258 33.4844 123.258 34.1094C123.258 34.6562 123.418 35.0469 123.738 35.2812C124.059 35.5078 124.477 35.6211 124.992 35.6211C125.758 35.6211 126.402 35.3945 126.926 34.9414C127.457 34.4883 127.723 33.8438 127.723 33.0078V31.9297ZM138.539 38H134.965V19.7656H138.539V38ZM48.6914 71H44.0742L36.6211 58.0391H36.5156C36.5469 58.5781 36.5742 59.1211 36.5977 59.668C36.6211 60.2148 36.6445 60.7617 36.668 61.3086C36.6914 61.8477 36.7148 62.3906 36.7383 62.9375V71H33.4922V53.8672H38.0742L45.5156 66.6992H45.5977C45.582 66.168 45.5625 65.6406 45.5391 65.1172C45.5156 64.5938 45.4922 64.0703 45.4688 63.5469C45.4531 63.0234 45.4375 62.5 45.4219 61.9766V53.8672H48.6914V71ZM58.1367 57.6523C59.3477 57.6523 60.3906 57.8867 61.2656 58.3555C62.1406 58.8164 62.8164 59.4883 63.293 60.3711C63.7695 61.2539 64.0078 62.332 64.0078 63.6055V65.3398H55.5586C55.5977 66.3477 55.8984 67.1406 56.4609 67.7188C57.0312 68.2891 57.8203 68.5742 58.8281 68.5742C59.6641 68.5742 60.4297 68.4883 61.125 68.3164C61.8203 68.1445 62.5352 67.8867 63.2695 67.543V70.3086C62.6211 70.6289 61.9414 70.8633 61.2305 71.0117C60.5273 71.1602 59.6719 71.2344 58.6641 71.2344C57.3516 71.2344 56.1875 70.9922 55.1719 70.5078C54.1641 70.0234 53.3711 69.2852 52.793 68.293C52.2227 67.3008 51.9375 66.0508 51.9375 64.543C51.9375 63.0117 52.1953 61.7383 52.7109 60.7227C53.2344 59.6992 53.9609 58.9336 54.8906 58.4258C55.8203 57.9102 56.9023 57.6523 58.1367 57.6523ZM58.1602 60.1953C57.4648 60.1953 56.8867 60.418 56.4258 60.8633C55.9727 61.3086 55.7109 62.0078 55.6406 62.9609H60.6562C60.6484 62.4297 60.5508 61.957 60.3633 61.543C60.1836 61.1289 59.9102 60.8008 59.543 60.5586C59.1836 60.3164 58.7227 60.1953 58.1602 60.1953ZM72.4336 68.3867C72.8242 68.3867 73.2031 68.3477 73.5703 68.2695C73.9453 68.1914 74.3164 68.0938 74.6836 67.9766V70.6367C74.3008 70.8086 73.8242 70.9492 73.2539 71.0586C72.6914 71.1758 72.0742 71.2344 71.4023 71.2344C70.6211 71.2344 69.918 71.1094 69.293 70.8594C68.6758 70.6016 68.1875 70.1602 67.8281 69.5352C67.4766 68.9023 67.3008 68.0234 67.3008 66.8984V60.582H65.5898V59.0703L67.5586 57.875L68.5898 55.1094H70.875V57.8984H74.543V60.582H70.875V66.8984C70.875 67.3984 71.0156 67.7734 71.2969 68.0234C71.5859 68.2656 71.9648 68.3867 72.4336 68.3867ZM88.1133 71L87.1055 66.418C87.0508 66.1445 86.9609 65.7422 86.8359 65.2109C86.7109 64.6719 86.5742 64.0977 86.4258 63.4883C86.2852 62.8711 86.1523 62.3008 86.0273 61.7773C85.9102 61.2539 85.8242 60.8711 85.7695 60.6289H85.6641C85.6094 60.8711 85.5234 61.2539 85.4062 61.7773C85.2891 62.3008 85.1562 62.8711 85.0078 63.4883C84.8672 64.1055 84.7344 64.6875 84.6094 65.2344C84.4844 65.7734 84.3906 66.1836 84.3281 66.4648L83.2734 71H79.4297L75.7031 57.8984H79.2656L80.7773 63.6992C80.8789 64.1055 80.9766 64.5898 81.0703 65.1523C81.1641 65.707 81.2461 66.2461 81.3164 66.7695C81.3945 67.2852 81.4531 67.6953 81.4922 68H81.5859C81.6016 67.7734 81.6328 67.4727 81.6797 67.0977C81.7344 66.7227 81.793 66.3359 81.8555 65.9375C81.9258 65.5312 81.9883 65.168 82.043 64.8477C82.1055 64.5195 82.1523 64.2969 82.1836 64.1797L83.8008 57.8984H87.7383L89.2734 64.1797C89.3281 64.4062 89.3984 64.7656 89.4844 65.2578C89.5781 65.75 89.6602 66.2578 89.7305 66.7812C89.8008 67.2969 89.8398 67.7031 89.8477 68H89.9414C89.9727 67.7344 90.0273 67.3398 90.1055 66.8164C90.1836 66.293 90.2734 65.7461 90.375 65.1758C90.4844 64.5977 90.5938 64.1055 90.7031 63.6992L92.2734 57.8984H95.7773L92.0039 71H88.1133ZM109.805 64.4258C109.805 65.5195 109.656 66.4883 109.359 67.332C109.07 68.1758 108.645 68.8906 108.082 69.4766C107.527 70.0547 106.855 70.4922 106.066 70.7891C105.285 71.0859 104.402 71.2344 103.418 71.2344C102.496 71.2344 101.648 71.0859 100.875 70.7891C100.109 70.4922 99.4414 70.0547 98.8711 69.4766C98.3086 68.8906 97.8711 68.1758 97.5586 67.332C97.2539 66.4883 97.1016 65.5195 97.1016 64.4258C97.1016 62.9727 97.3594 61.7422 97.875 60.7344C98.3906 59.7266 99.125 58.9609 100.078 58.4375C101.031 57.9141 102.168 57.6523 103.488 57.6523C104.715 57.6523 105.801 57.9141 106.746 58.4375C107.699 58.9609 108.445 59.7266 108.984 60.7344C109.531 61.7422 109.805 62.9727 109.805 64.4258ZM100.746 64.4258C100.746 65.2852 100.84 66.0078 101.027 66.5938C101.215 67.1797 101.508 67.6211 101.906 67.918C102.305 68.2148 102.824 68.3633 103.465 68.3633C104.098 68.3633 104.609 68.2148 105 67.918C105.398 67.6211 105.688 67.1797 105.867 66.5938C106.055 66.0078 106.148 65.2852 106.148 64.4258C106.148 63.5586 106.055 62.8398 105.867 62.2695C105.688 61.6914 105.398 61.2578 105 60.9688C104.602 60.6797 104.082 60.5352 103.441 60.5352C102.496 60.5352 101.809 60.8594 101.379 61.5078C100.957 62.1562 100.746 63.1289 100.746 64.4258ZM120.07 57.6523C120.25 57.6523 120.457 57.6641 120.691 57.6875C120.934 57.7031 121.129 57.7266 121.277 57.7578L121.008 61.1094C120.891 61.0703 120.723 61.043 120.504 61.0273C120.293 61.0039 120.109 60.9922 119.953 60.9922C119.492 60.9922 119.043 61.0508 118.605 61.168C118.176 61.2852 117.789 61.4766 117.445 61.7422C117.102 62 116.828 62.3438 116.625 62.7734C116.43 63.1953 116.332 63.7148 116.332 64.332V71H112.758V57.8984H115.465L115.992 60.1016H116.168C116.426 59.6562 116.746 59.25 117.129 58.8828C117.52 58.5078 117.961 58.2109 118.453 57.9922C118.953 57.7656 119.492 57.6523 120.07 57.6523ZM127.23 52.7656V60.9219C127.23 61.4141 127.211 61.9062 127.172 62.3984C127.133 62.8906 127.09 63.3828 127.043 63.875H127.09C127.332 63.5312 127.578 63.1914 127.828 62.8555C128.086 62.5195 128.359 62.1953 128.648 61.8828L132.316 57.8984H136.348L131.145 63.582L136.664 71H132.539L128.766 65.6914L127.23 66.9219V71H123.656V52.7656H127.23Z" fill="white"/>
</g>
</g>
<defs>
<filter id="filter0_d_1_2" x="0" y="0" width="168" height="98" filterUnits="userSpaceOnUse" color-interpolation-filters="sRGB">
<feFlood flood-opacity="0" result="BackgroundImageFix"/>
<feColorMatrix in="SourceAlpha" type="matrix" values="0 0 0 0 0 0 0 0 0 0 0 0 0 0 0 0 0 0 127 0" result="hardAlpha"/>
<feOffset dy="4"/>
<feGaussianBlur stdDeviation="2"/>
<feComposite in2="hardAlpha" operator="out"/>
<feColorMatrix type="matrix" values="0 0 0 0 0 0 0 0 0 0 0 0 0 0 0 0 0 0 0.25 0"/>
<feBlend mode="normal" in2="BackgroundImageFix" result="effect1_dropShadow_1_2"/>
<feBlend mode="normal" in="SourceGraphic" in2="effect1_dropShadow_1_2" result="shape"/>
</filter>
<filter id="filter1_i_1_2" x="4" y="0" width="160" height="94" filterUnits="userSpaceOnUse" color-interpolation-filters="sRGB">
<feFlood flood-opacity="0" result="BackgroundImageFix"/>
<feBlend mode="normal" in="SourceGraphic" in2="BackgroundImageFix" result="shape"/>
<feColorMatrix in="SourceAlpha" type="matrix" values="0 0 0 0 0 0 0 0 0 0 0 0 0 0 0 0 0 0 127 0" result="hardAlpha"/>
<feOffset dy="4"/>
<feGaussianBlur stdDeviation="2"/>
<feComposite in2="hardAlpha" operator="arithmetic" k2="-1" k3="1"/>
<feColorMatrix type="matrix" values="0 0 0 0 0 0 0 0 0 0 0 0 0 0 0 0 0 0 0.25 0"/>
<feBlend mode="normal" in2="shape" result="effect1_innerShadow_1_2"/>
</filter>
<filter id="filter2_d_1_2" x="25.7305" y="19.7656" width="116.809" height="59.4688" filterUnits="userSpaceOnUse" color-interpolation-filters="sRGB">
<feFlood flood-opacity="0" result="BackgroundImageFix"/>
<feColorMatrix in="SourceAlpha" type="matrix" values="0 0 0 0 0 0 0 0 0 0 0 0 0 0 0 0 0 0 127 0" result="hardAlpha"/>
<feOffset dy="4"/>
<feGaussianBlur stdDeviation="2"/>
<feComposite in2="hardAlpha" operator="out"/>
<feColorMatrix type="matrix" values="0 0 0 0 0 0 0 0 0 0 0 0 0 0 0 0 0 0 0.25 0"/>
<feBlend mode="normal" in2="BackgroundImageFix" result="effect1_dropShadow_1_2"/>
<feBlend mode="normal" in="SourceGraphic" in2="effect1_dropShadow_1_2" result="shape"/>
</filter>
<clipPath id="clip0_1_2">
<rect width="160" height="90" fill="white" transform="translate(4)"/>
</clipPath>
</defs>
</svg>
